<svg id="Layer_1" enable-background="new 0 0 128 128" height="512" viewBox="0 0 128 128" width="512" xmlns="http://www.w3.org/2000/svg"><path d="m121.107 62.865c-.532-.152-1.085.152-1.238.684l-11.396 39.453v-2.581c0-7.997-3.124-15.275-8.208-20.691-.042-.051-.083-.099-.133-.14-4.633-4.873-10.865-8.207-17.848-9.151 3.743-1.795 6.942-4.543 9.29-7.926.012-.015.031-.02.042-.036l5.934-8.33c1.754-.756 2.989-2.898 2.989-5.495 0-1.589-.465-3.008-1.226-4.044l.651-7.915s0 0 0-.001c.65-7.964-1.973-15.998-7.19-22.033-.454-.538-.92-1.046-1.418-1.545l-.44-.45c-2.835-2.845-6.606-4.412-10.617-4.412h-16.203c-4.197 0-8.225 1.773-11.05 4.867l-1.168 1.278c-5.606 6.136-8.435 14.408-7.76 22.698l.626 7.549c-.746 1.033-1.201 2.436-1.201 4.008 0 2.578 1.218 4.707 2.952 5.477l5.972 8.349c.014.02.036.03.052.048 2.347 3.376 5.543 6.119 9.28 7.912-6.984.945-13.215 4.278-17.848 9.151-.051.042-.093.09-.135.142-.256.273-.506.551-.752.833h-31.894c-.552 0-1 .447-1 1v35.115c0 .553.448 1 1 1h16.667c1.345 3.541 4.765 6.069 8.772 6.069h70.863c5.177 0 9.389-4.212 9.389-9.39 0-4.34-2.963-7.991-6.97-9.062l11.899-41.193c.154-.53-.152-1.084-.683-1.238z" fill="#e6e7e8"/><path d="m74.208 67.156h-.961c-1.673.392-3.414.605-5.207.605s-3.534-.214-5.207-.605h-.96c-16.162 0-29.265 13.102-29.265 29.265v22.327h70.863v-22.327c.001-16.163-13.101-29.265-29.263-29.265z" fill="#fff"/><path d="m67.968 95.11c.046-.009.073-.016.073-.016s.026.007.072.017c.233-.181 1.552-1.225 3.509-3.006l-1.173-8.213h-4.857l-1.164 8.184c1.972 1.796 3.304 2.851 3.54 3.034z" fill="#fa759e"/><path d="m51.643 77.564c-1.442-2.087-2.823-4.315-4.062-6.667-3.072 1.724-5.792 3.996-8.052 6.667z" fill="#0089ef"/><path d="m103.472 101.969v-5.548c0-10.968-6.043-20.513-14.972-25.524-7.584 14.397-20.46 24.27-20.46 24.27s-4.642-3.562-9.992-9.521v27.034h-17.382c-1.007 3.502-4.228 6.068-8.054 6.069h70.856c-4.632-.002-8.386-3.757-8.386-8.389.001-4.635 3.757-8.391 8.39-8.391z" fill="#0089ef"/><path d="m67.876 74.141-4.211 5.096 1.927 4.653h4.857l1.649-4.641z" fill="#fa759e"/><path d="m94.967 32.611-.775 9.425v5.485l-7.392 10.375c2.528-3.675 4.008-8.116 4.008-12.899v-4.612c0-4.229-1.198-8.358-3.464-11.933l-3.806-6.012-.05-.081c-1.712-2.709-4.693-4.34-7.885-4.34h-15.125c-3.192 0-6.173 1.631-7.885 4.34l-3.857 6.092c-2.266 3.575-3.464 7.703-3.464 11.933v4.612c0 4.783 1.48 9.224 4.008 12.899l-7.421-10.375v-5.485l-.745-9.022c-.654-8.046 2.064-15.991 7.502-21.942l1.168-1.279c2.648-2.9 6.394-4.541 10.311-4.541h16.202c3.716 0 7.28 1.48 9.909 4.118l.433.443c.483.483.936.977 1.369 1.49 5.066 5.862 7.593 13.535 6.959 21.309z" fill="#d4fbff"/><path d="m92.146 39.863c-.478 0-.931.142-1.344.394 0 .042.004.084.004.127v4.612c0 1.298-.115 2.569-.323 3.808.493.395 1.055.638 1.662.638 1.874 0 3.393-2.144 3.393-4.79 0-2.645-1.519-4.789-3.392-4.789z" fill="#fff"/><path d="m45.275 44.996v-4.612c0-.042.004-.084.004-.127-.412-.252-.866-.394-1.344-.394-1.874 0-3.393 2.144-3.393 4.79 0 2.645 1.519 4.79 3.393 4.79.607 0 1.169-.244 1.663-.638-.209-1.24-.323-2.511-.323-3.809z" fill="#fff"/><path d="m68.041 67.762c-12.573 0-22.766-10.193-22.766-22.766v-4.612c0-4.224 1.2-8.36 3.459-11.929l3.862-6.099c1.711-2.702 4.686-4.339 7.884-4.339h15.12c3.198 0 6.173 1.637 7.884 4.339l3.862 6.099c2.26 3.568 3.459 7.705 3.459 11.929v4.612c.002 12.573-10.191 22.766-22.764 22.766z" fill="#fff"/><path d="m7.17 77.564h50.879v35.115h-50.879z" fill="#ffd7e5"/><path d="m7.17 77.564h3v35.115h-3z" fill="#fff"/><path d="m39.008 82.064h12.459v7.13h-12.459z" fill="#fa759e"/><circle cx="103.472" cy="110.358" fill="#fff" r="8.39"/><circle cx="32.609" cy="110.358" fill="#fff" r="8.39"/><g fill="#3a2c60"><path d="m86.378 100.095c-.552 0-1 .447-1 1v4.892c0 .553.448 1 1 1s1-.447 1-1v-4.892c0-.553-.447-1-1-1z"/><path d="m73.326 58.356c.333-.439.247-1.067-.193-1.4-.442-.335-1.069-.247-1.401.193-.013.017-1.298 1.677-3.691 1.677-2.404 0-3.623-1.586-3.681-1.664-.324-.443-.946-.543-1.392-.22-.448.323-.549.948-.226 1.396.073.102 1.835 2.488 5.299 2.488 3.375 0 5.208-2.368 5.285-2.47z"/><circle cx="57.997" cy="42.816" r="2.277"/><circle cx="78.084" cy="42.816" r="2.277"/><path d="m68.041 54.237c1.979 0 3.589-1.61 3.589-3.59 0-.553-.448-1-1-1s-1 .447-1 1c0 .877-.713 1.59-1.589 1.59s-1.589-.713-1.589-1.59c0-.553-.448-1-1-1s-1 .447-1 1c0 1.98 1.61 3.59 3.589 3.59z"/><path d="m76.353 38.4 4.458.776c.058.01.116.015.172.015.477 0 .899-.343.984-.828.095-.544-.27-1.062-.814-1.157l-4.458-.776c-.546-.09-1.062.271-1.157.813-.093.544.271 1.063.815 1.157z"/><path d="m59.385 36.43-4.458.776c-.544.095-.909.613-.814 1.157.085.485.507.828.984.828.057 0 .115-.005.172-.015l4.458-.776c.544-.095.909-.613.814-1.157-.094-.543-.613-.903-1.156-.813z"/><path d="m117.107 58.865c-.532-.152-1.085.152-1.238.684l-11.396 39.453v-2.581c0-7.991-3.119-15.261-8.197-20.675-.047-.06-.095-.115-.153-.162-2.084-2.19-4.489-4.071-7.143-5.562-.005-.003-.008-.008-.013-.011-.003-.002-.007-.001-.011-.003-3.242-1.816-6.851-3.048-10.685-3.565 3.748-1.795 6.951-4.545 9.302-7.931.012-.015.031-.02.042-.036l5.934-8.33c1.754-.756 2.989-2.898 2.989-5.495 0-1.589-.465-3.008-1.226-4.044l.651-7.915s0 0 0-.001c.65-7.964-1.973-15.998-7.19-22.033-.454-.538-.92-1.046-1.418-1.545l-.44-.45c-2.835-2.845-6.606-4.412-10.617-4.412h-16.202c-4.197 0-8.225 1.773-11.05 4.867l-1.168 1.278c-5.606 6.136-8.435 14.408-7.76 22.698l.626 7.549c-.746 1.033-1.201 2.436-1.201 4.008 0 2.578 1.218 4.707 2.952 5.477l5.972 8.349c.014.02.036.03.052.048 2.348 3.377 5.545 6.121 9.284 7.914-6.97.943-13.187 4.268-17.817 9.126-.083.062-.15.137-.211.224-.238.254-.473.51-.702.773h-31.903c-.552 0-1 .447-1 1v35.115c0 .553.448 1 1 1h16.667c1.345 3.541 4.765 6.069 8.772 6.069h70.863c5.177 0 9.389-4.212 9.389-9.39 0-4.34-2.963-7.991-6.97-9.062l11.899-41.193c.154-.528-.152-1.082-.683-1.236zm-75.213 52.814c.061-.433.104-.871.104-1.32 0-4.84-3.681-8.834-8.389-9.335v-22.46h23.439v33.115zm5.318-39.403c.815 1.484 1.677 2.913 2.573 4.288h-6.661c-.273-.17-.552-.331-.837-.486 1.496-1.439 3.145-2.716 4.925-3.802zm4.976 4.287c-1.141-1.672-2.235-3.429-3.245-5.267 1.554-.804 3.194-1.461 4.899-1.968l4.412 7.276c-.069-.015-.133-.042-.206-.042h-5.86zm17.555 6.328h-3.483l-1.441-3.48 3.058-3.699 3.089 3.738zm-1.702 10.994c-.545-.445-1.431-1.192-2.547-2.2l.966-6.795h3.123l.974 6.822c-1.098.988-1.978 1.733-2.516 2.173zm1.234-19.622 7.057-6.014c1.219.091 2.418.258 3.59.499l-6.433 10.614zm-1.398-1.436-5.609-4.778c1.849.463 3.782.713 5.773.713 1.829 0 3.608-.215 5.32-.608zm-8.435-4.557 7.036 5.992-4.213 5.099-6.403-10.559c1.167-.254 2.364-.427 3.58-.532zm-.394 9.644 2.236 3.687c.168.276.459.455.782.479.024.002.049.003.073.003.297 0 .58-.132.771-.363l.466-.564 1.187 2.865-.854 6.007c-1.394-1.331-2.988-2.937-4.661-4.784zm13.292 12.146-.866-6.066.976-2.75.393.475c.191.231.474.363.771.363.024 0 .048-.001.073-.003.323-.023.615-.202.782-.479l7.487-12.352c1.805.515 3.536 1.206 5.175 2.052-4.445 8.1-10.555 14.722-14.791 18.76zm16.016-51.845c-.314-3.076-2.92-5.483-6.077-5.483h-10.136c-1.821 0-3.303 1.482-3.303 3.304v.197h-1.719c-.457-2-2.243-3.501-4.38-3.501h-8.938c-3.157 0-5.763 2.407-6.077 5.483l-1.369.391c.285-3.411 1.379-6.706 3.222-9.616l3.862-6.1c1.537-2.426 4.168-3.874 7.039-3.874h15.121c2.871 0 5.502 1.448 7.039 3.874l3.862 6.1c1.843 2.91 2.937 6.204 3.222 9.616zm-17.516-2.18c0-.719.584-1.304 1.303-1.304h10.136c2.266 0 4.109 1.844 4.109 4.109v3.486c0 2.72-2.212 4.932-4.931 4.932h-5.686c-2.719 0-4.931-2.212-4.931-4.932zm-5.598 1.197v5.095c0 2.72-2.212 4.932-4.931 4.932h-5.686c-2.719 0-4.932-2.212-4.932-4.932v-3.486c0-2.266 1.843-4.109 4.109-4.109h8.938c1.379-.001 2.502 1.122 2.502 2.5zm-20.731 11.08c-1.507.675-2.968-1.304-2.968-3.659 0-2.054 1.096-3.789 2.393-3.789.113 0 .227.014.339.042v4.091c0 1.125.084 2.231.236 3.315zm50.027-3.66c0 2.355-1.458 4.333-2.967 3.66 0 0-.001-.001-.001-.001.152-1.084.236-2.19.236-3.316v-4.091c1.407-.346 2.732 1.515 2.732 3.748zm-45.184-32.906 1.168-1.278c2.447-2.68 5.937-4.216 9.573-4.216h16.202c3.476 0 6.743 1.358 9.193 3.817l.441.451c.466.466.895.934 1.32 1.438 4.876 5.641 7.325 13.14 6.718 20.572l-.539 6.578c-.405-.158-.836-.245-1.286-.245-.132 0-.261.026-.392.041-.247-3.898-1.463-7.668-3.562-10.984l-3.862-6.1c-1.905-3.008-5.168-4.804-8.729-4.804h-15.119c-3.56 0-6.823 1.796-8.729 4.804l-3.862 6.1c-2.1 3.316-3.315 7.087-3.562 10.984-.13-.015-.259-.041-.392-.041-.46 0-.901.089-1.314.254l-.511-6.185c-.628-7.737 2.012-15.458 7.244-21.186zm-3.079 33.25v-4.286l1.418-.405v2.022c0 3.822 3.109 6.932 6.932 6.932h5.686c3.822 0 6.931-3.109 6.931-6.932v-4.095h1.598v4.095c0 3.822 3.109 6.932 6.931 6.932h5.686c3.822 0 6.931-3.109 6.931-6.932v-2.022l1.418.405v4.286c0 12.002-9.764 21.766-21.766 21.766-12.001 0-21.765-9.764-21.765-21.766zm-38.105 66.683v-33.116h23.439v22.46c-4.709.501-8.39 4.495-8.39 9.335 0 .449.043.888.104 1.32h-15.153zm17.05-1.321c0-4.074 3.315-7.39 7.39-7.39 4.074 0 7.389 3.315 7.389 7.39s-3.315 7.39-7.389 7.39c-4.075 0-7.39-3.315-7.39-7.39zm16.161 3.321h7.322v4.069h-10.321c1.34-1.049 2.385-2.452 2.999-4.069zm45.997 4.069v-6.731c0-.553-.448-1-1-1s-1 .447-1 1v6.731h-34.675v-4.069h7.345c.552 0 1-.447 1-1v-24.457c4.478 4.713 8.104 7.523 8.384 7.738.179.138.394.206.608.206s.429-.068.608-.206c.521-.4 12.599-9.76 20.236-23.677 1.774 1.082 3.417 2.358 4.907 3.792-5.153 2.77-8.414 8.143-8.414 14.075v6.003c0 .553.448 1 1 1s1-.447 1-1v-6.003c0-5.383 3.07-10.239 7.872-12.574 4.488 5.004 7.222 11.61 7.222 18.846v4.603c-4.709.501-8.39 4.495-8.39 9.335 0 3 1.42 5.67 3.617 7.39h-10.32zm23.484-7.39c0 4.074-3.315 7.39-7.389 7.39-4.075 0-7.39-3.315-7.39-7.39s3.315-7.39 7.39-7.39c4.074.001 7.389 3.316 7.389 7.39z"/></g></svg>