<svg height="488pt" viewBox="-1 0 488 488.35" width="488pt" xmlns="http://www.w3.org/2000/svg"><path d="m120.464844 339.148438h-9.480469c-.019531-.003907-.042969-.003907-.0625-.003907l-.003906.003907h-62.355469c-16.476562 0-29.828125 13.355468-29.828125 29.828124v27.082032h131.554687v-27.082032c0-16.472656-13.351562-29.828124-29.824218-29.828124zm0 0" fill="#e0ebfc"/><path d="m436.464844 339.148438h-9.480469c-.019531-.003907-.042969-.003907-.0625-.003907l-.003906.003907h-62.359375c-16.472656 0-29.828125 13.355468-29.828125 29.828124v27.082032h131.558593v-27.082032c0-16.472656-13.351562-29.828124-29.824218-29.828124zm0 0" fill="#a4c9ff"/><path d="m400.519531 356.847656h-.429687l-7.203125 12.648438v15.054687c0 1.390625 1.125 2.519531 2.515625 2.519531h10.074218c1.390626 0 2.519532-1.128906 2.519532-2.519531v-14.578125zm0 0" fill="#e0ebfc"/><path d="m84.511719 357.324219-7.625 13.394531v13.832031c0 1.390625 1.125 2.519531 2.515625 2.519531h10.074218c1.390626 0 2.519532-1.128906 2.519532-2.519531v-14.085937zm0 0" fill="#a4c9ff"/><path d="m435.929688 287.332031h-385.585938c-9.503906 0-17.207031-7.703125-17.207031-17.207031v-248.917969c0-9.503906 7.703125-17.207031 17.207031-17.207031h385.585938c9.503906 0 17.207031 7.703125 17.207031 17.207031v248.917969c0 9.503906-7.703125 17.207031-17.207031 17.207031zm0 0" fill="#ffea92"/><path d="m61.136719 253.332031v-215.335937c0-3.3125 2.6875-6 6-6h352c3.3125 0 6 2.6875 6 6v215.335937c0 3.3125-2.6875 6-6 6h-352c-3.3125 0-6-2.6875-6-6zm0 0" fill="#6bdddd"/><path d="m435.929688 291.332031h-385.585938c-11.695312 0-21.207031-9.515625-21.207031-21.207031v-248.917969c0-11.691406 9.515625-21.207031 21.207031-21.207031h385.582031c11.695313 0 21.210938 9.515625 21.210938 21.207031v248.917969c0 11.691406-9.515625 21.207031-21.207031 21.207031zm-385.585938-283.335937c-7.28125 0-13.207031 5.929687-13.207031 13.210937v248.914063c0 7.285156 5.925781 13.207031 13.207031 13.207031h385.582031c7.285157 0 13.210938-5.925781 13.210938-13.207031v-248.914063c0-7.28125-5.925781-13.207031-13.210938-13.207031h-385.582031zm0 0" fill="#3762cc"/><g fill="#e0ebfc"><path d="m138.742188 86.910156h-18.707032c-.839844 0-1.523437.683594-1.523437 1.527344v13.382812c0 .839844.683593 1.523438 1.523437 1.523438h16.289063c.839843 0 1.523437.683594 1.523437 1.523438v4.445312c0 .84375-.683594 1.527344-1.523437 1.527344h-16.289063c-.839844 0-1.523437.679687-1.523437 1.523437v14.109375c0 .839844.683593 1.523438 1.523437 1.523438h18.703125c.84375 0 1.523438.683594 1.523438 1.523437v4.445313c0 .839844-.679688 1.523437-1.523438 1.523437h-27.882812c-.84375 0-1.523438-.683593-1.523438-1.523437v-53.019532c0-.84375.679688-1.523437 1.523438-1.523437h27.886719c.839843 0 1.523437.679687 1.523437 1.523437v4.441407c0 .84375-.683594 1.523437-1.523437 1.523437zm0 0"/><path d="m160.398438 93.355469h39.804687c.84375 0 1.527344.683593 1.527344 1.523437v4.6875c0 .839844-.683594 1.523438-1.527344 1.523438h-39.804687c-.84375 0-1.527344-.683594-1.527344-1.523438v-4.6875c0-.839844.683594-1.523437 1.527344-1.523437zm0 18.285156h39.804687c.84375 0 1.527344.683594 1.527344 1.523437v4.6875c0 .84375-.683594 1.523438-1.527344 1.523438h-39.804687c-.84375 0-1.527344-.679688-1.527344-1.523438v-4.6875c0-.839843.683594-1.523437 1.527344-1.523437zm0 0"/><path d="m284.054688 110.675781c0-8.136719-4.429688-12.324219-11.117188-12.324219-6.765625 0-11.195312 4.1875-11.195312 12.324219v23.285157c0 .84375-.683594 1.523437-1.523438 1.523437h-6.058594c-.839844 0-1.523437-.679687-1.523437-1.523437v-23.285157c0-8.136719-4.429688-12.324219-11.117188-12.324219-6.765625 0-11.195312 4.1875-11.195312 12.324219v23.285157c0 .84375-.683594 1.523437-1.523438 1.523437h-6.136719c-.84375 0-1.523437-.679687-1.523437-1.523437v-41.335938c0-.84375.679687-1.523438 1.523437-1.523438h6.136719c.839844 0 1.523438.679688 1.523438 1.523438 0 1.253906 1.433593 1.976562 2.429687 1.214844 2.882813-2.203125 6.652344-3.460938 10.699219-3.460938 6.140625 0 11.417969 2.289063 14.691406 6.757813.613281.839843 1.847657.902343 2.464844.066406 3.132813-4.246094 8.632813-6.824219 14.257813-6.824219 10.394531 0 18.289062 6.523438 18.289062 18.929688v24.65625c0 .839844-.683594 1.523437-1.523438 1.523437h-6.058593c-.839844 0-1.523438-.683593-1.523438-1.523437v-23.289063zm0 0"/><path d="m327.152344 90.375c10.050781 0 16.871094 4.609375 19.816406 12.6875.363281.996094-.382812 2.054688-1.441406 2.054688h-6.738282c-.609374 0-1.191406-.335938-1.441406-.894532-1.6875-3.753906-5.105468-6.117187-10.191406-6.117187-7.410156 0-12.324219 5.480469-12.324219 15.148437 0 9.742188 4.914063 15.222656 12.324219 15.222656 5.085938 0 8.367188-2.085937 10.164062-6.0625.253907-.5625.792969-.949218 1.410157-.949218h6.753906c1.070313 0 1.820313 1.082031 1.429687 2.078125-2.976562 7.570312-9.769531 12.667969-19.757812 12.667969-12.730469 0-21.75-9.023438-21.75-22.957032 0-13.855468 9.019531-22.878906 21.746094-22.878906zm0 0"/><path d="m355.671875 102.023438c0-.441407.1875-.863282.523437-1.152344 7.367188-6.421875 14.925782-12.074219 14.925782-18.1875 0-3.328125-1.441406-5.605469-5.164063-5.605469-3.058593 0-4.882812 1.875-5.382812 4.742187-.128907.742188-.746094 1.300782-1.5 1.300782h-1.789063c-.917968 0-1.644531-.8125-1.519531-1.71875.820313-5.757813 4.992187-8.566406 10.144531-8.566406 6.480469 0 10.15625 3.894531 10.15625 9.628906 0 6.347656-5.296875 11.464844-10.027344 15.679687-1.042968.933594-.378906 2.65625 1.019532 2.65625h8.359375c.839843 0 1.523437.683594 1.523437 1.523438v1.113281c0 .84375-.683594 1.523438-1.523437 1.523438h-18.226563c-.839844 0-1.523437-.679688-1.523437-1.523438v-1.414062zm0 0"/></g><path d="m419.136719 263.332031h-352c-5.515625 0-10-4.484375-10-10v-215.335937c0-5.511719 4.484375-10 10-10h352c5.515625 0 10 4.488281 10 10v215.335937c0 5.515625-4.484375 10-10 10zm-352-227.335937c-1.105469 0-2 .898437-2 2v215.335937c0 1.105469.894531 2 2 2h352c1.105469 0 2-.894531 2-2v-215.335937c0-1.101563-.894531-2-2-2zm0 0" fill="#3762cc"/><path d="m155.871094 237.863281c0 3.785157-3.070313 6.855469-6.859375 6.855469h-6.085938c.027344.699219.074219 1.394531.074219 2.097656v5.476563c.125 0 .246094-.015625.371094-.015625 4.871094 0 9.28125 1.9375 12.5 5.074218zm0 0" fill="#4671c6"/><path d="m13.84375 231.144531v25.582031c3.148438-2.761718 7.277344-4.453124 11.8125-4.453124.121094 0 .246094.015624.367188.019531v-5.476563c0-.570312.027343-1.128906.042968-1.695312v-2.554688c-5.253906-2.3125-9.566406-6.359375-12.222656-11.421875zm0 0" fill="#4671c6"/><path d="m84.511719 332.285156c-9.558594 0-18.574219-2.273437-26.539063-6.304687v12.050781c0 .421875.058594.832031.144532 1.238281.003906 0 .003906 0 .011718-.003906.085938.40625.214844.796875.378906 1.175781.023438.050782.042969.101563.066407.148438.074219.152344.15625.304687.242187.453125.085938.144531.175782.28125.273438.417969.054687.074218.097656.152343.15625.222656l3.769531 4.789062c3.753906 4.773438 8.960937 8.230469 14.851563 9.613282.792968.183593 1.613281.34375 2.460937.46875 9.570313 1.433593 19.144531-2.640626 25.089844-10.316407l5.496093-7.089843c.078126-.378907.125-.765626.125-1.15625v-12.007813c-7.960937 4.03125-16.976562 6.300781-26.527343 6.300781zm0 0" fill="#f9cfcf"/><path d="m143.367188 252.273438c-.121094 0-.246094.015624-.367188.019531v-5.476563c0-32.011718-26.1875-57.960937-58.488281-57.960937s-58.488281 25.949219-58.488281 57.960937v5.476563c-.125-.003907-.246094-.019531-.371094-.019531-9.851563 0-17.84375 7.917968-17.84375 17.683593s7.992187 17.683594 17.84375 17.683594c.648437 0 1.285156-.035156 1.914062-.101563 6.035156 25.640626 29.230469 44.75 56.945313 44.75 27.714843 0 50.90625-19.109374 56.941406-44.75.632813.066407 1.269531.101563 1.914063.101563 9.855468 0 17.847656-7.914063 17.847656-17.683594 0-9.765625-7.988282-17.683593-17.847656-17.683593zm0 0" fill="#f9cfcf"/><path d="m55.445312 279.15625c-3.382812 0-6.136718-2.753906-6.136718-6.136719v-10.234375c0-3.386718 2.753906-6.140625 6.136718-6.140625 3.386719 0 6.140626 2.753907 6.140626 6.140625v10.234375c0 3.382813-2.753907 6.136719-6.140626 6.136719zm0 0" fill="#3762cc"/><path d="m113.300781 279.15625c-3.386719 0-6.140625-2.753906-6.140625-6.136719v-10.234375c0-3.386718 2.753906-6.140625 6.140625-6.140625 3.382813 0 6.140625 2.753907 6.140625 6.140625v10.234375c-.003906 3.382813-2.757812 6.136719-6.140625 6.136719zm0 0" fill="#3762cc"/><path d="m84.511719 336.285156c-28.085938 0-52.308594-18.210937-60.003907-44.675781-11.515624-.59375-20.695312-10.078125-20.695312-21.652344 0-10.730469 7.886719-19.664062 18.210938-21.386719v-1.757812c0-34.164062 28.03125-61.957031 62.488281-61.957031s62.488281 27.792969 62.488281 61.957031v1.757812c10.320312 1.722657 18.210938 10.65625 18.210938 21.386719 0 11.574219-9.183594 21.058594-20.695313 21.652344-7.695313 26.464844-31.917969 44.675781-60.003906 44.675781zm-56.9375-52.75c1.832031 0 3.457031 1.261719 3.890625 3.085938 5.773437 24.53125 27.585937 41.664062 53.046875 41.664062 25.460937 0 47.273437-17.132812 53.046875-41.664062.460937-1.964844 2.308594-3.269532 4.3125-3.0625.492187.050781.992187.082031 1.496094.082031 7.632812 0 13.84375-6.136719 13.84375-13.683594 0-7.523437-6.175782-13.648437-13.78125-13.683593-.164063.011718-.359376.019531-.433594.019531-1.046875 0-2.050782-.410157-2.800782-1.144531-.765624-.753907-1.199218-1.78125-1.199218-2.855469v-5.476563c0-29.753906-24.441406-53.960937-54.488282-53.960937-30.042968 0-54.488281 24.207031-54.488281 53.960937v5.476563c0 1.074219-.429687 2.101562-1.199219 2.855469-.746093.734374-1.753906 1.144531-2.800781 1.144531-.085937 0-.355469-.011719-.449219-.019531-7.550781 0-13.761718 6.136718-13.761718 13.683593s6.207031 13.683594 13.84375 13.683594c.503906 0 1.003906-.03125 1.492187-.085937.144531-.011719.285157-.019532.429688-.019532zm0 0" fill="#3762cc"/><path d="m149.011719 244.71875h-14.984375c-11.675782 0-21.140625-9.464844-21.140625-21.140625v-35.695313c0-7.003906 5.679687-12.683593 12.683593-12.683593h1.660157c15.816406 0 28.636719 12.824219 28.636719 28.640625v34.023437c.003906 3.785157-3.066407 6.855469-6.855469 6.855469zm0 0" fill="#4671c6"/><path d="m149.011719 248.71875h-14.984375c-13.863282 0-25.140625-11.277344-25.140625-25.144531v-35.691407c0-9.199218 7.480469-16.683593 16.683593-16.683593h1.660157c18 0 32.640625 14.640625 32.640625 32.640625v34.019531c0 5.988281-4.871094 10.859375-10.859375 10.859375zm-23.441407-69.519531c-4.789062 0-8.683593 3.898437-8.683593 8.6875v35.691406c0 9.453125 7.6875 17.144531 17.140625 17.144531h14.984375c1.578125 0 2.859375-1.28125 2.859375-2.855468v-34.023438c0-13.585938-11.054688-24.640625-24.640625-24.640625h-1.660157zm0 0" fill="#3762cc"/><path d="m150.289062 400.058594h-131.554687c-2.210937 0-4-1.792969-4-4v-27.082032c0-18.652343 15.175781-33.828124 33.828125-33.828124h5.410156v-9.167969c0-1.386719.71875-2.679688 1.90625-3.40625 1.183594-.726563 2.652344-.789063 3.898438-.164063 7.703125 3.898438 16.023437 5.875 24.734375 5.875 8.707031 0 17.019531-1.976562 24.71875-5.863281 1.238281-.628906 2.714843-.566406 3.902343.160156 1.183594.726563 1.902344 2.019531 1.902344 3.40625v9.160157h5.425782c18.652343 0 33.828124 15.175781 33.828124 33.828124v27.082032c0 2.207031-1.789062 4-4 4zm-127.554687-8h123.554687v-23.082032c0-14.242187-11.585937-25.828124-25.824218-25.828124h-9.480469c-.023437 0-.046875 0-.066406 0-1.195313 0-2.332031-.535157-3.089844-1.460938-.761719-.921875-1.070313-2.140625-.839844-3.3125.023438-.125.046875-.25.046875-.375v-5.863281c-7.152344 2.753906-14.703125 4.148437-22.523437 4.148437-7.828125 0-15.382813-1.394531-22.539063-4.152344v5.902344c.003906.109375.03125.226563.050782.339844.234374 1.171875-.074219 2.390625-.832032 3.3125-.761718.925781-1.890625 1.460938-3.089844 1.460938h-9.542968c-14.242188 0-25.828125 11.585937-25.828125 25.828124v23.082032zm0 0" fill="#3762cc"/><path d="m80.785156 244.71875h-44.53125c-13.976562 0-25.304687-11.328125-25.304687-25.304688v-4.539062c0-25.785156 20.902343-46.6875 46.6875-46.6875h34.140625c11.65625 0 21.109375 9.449219 21.109375 21.105469v23.328125c0 17.726562-14.375 32.097656-32.101563 32.097656zm0 0" fill="#4671c6"/><path d="m80.785156 248.71875h-44.53125c-16.15625 0-29.304687-13.148438-29.304687-29.304688v-4.542968c0-27.945313 22.738281-50.683594 50.6875-50.683594h34.144531c13.84375 0 25.105469 11.261719 25.105469 25.105469v23.324219c0 19.90625-16.195313 36.101562-36.101563 36.101562zm-23.148437-76.53125c-23.539063 0-42.6875 19.148438-42.6875 42.683594v4.542968c0 11.746094 9.554687 21.304688 21.304687 21.304688h44.53125c15.492188 0 28.101563-12.605469 28.101563-28.101562v-23.324219c0-9.433594-7.675781-17.105469-17.109375-17.105469zm0 0" fill="#3762cc"/><path d="m58.078125 335.175781h-9.039063c-1.214843 0-2.378906.4375-3.234374 1.210938l-5.425782 4.914062c-.832031.757813-.878906 1.960938-.101562 2.761719l29.308594 30.226562c1.585937 1.636719 4.515624 1.316407 5.613281-.613281l9.414062-16.53125zm0 0" fill="#a4c9ff"/><path d="m110.945312 335.175781h9.039063c1.214844 0 2.378906.4375 3.234375 1.210938l5.425781 4.914062c.835938.757813.878907 1.960938.101563 2.761719l-29.308594 30.226562c-1.585938 1.636719-4.515625 1.316407-5.613281-.613281l-9.414063-16.53125zm0 0" fill="#a4c9ff"/><path d="m72.164062 379.34375c-2.054687 0-4.042968-.816406-5.449218-2.269531l-29.308594-30.226563c-1.136719-1.171875-1.734375-2.703125-1.679688-4.308594.050782-1.605468.75-3.101562 1.964844-4.203124l5.425782-4.914063c1.597656-1.449219 3.703124-2.246094 5.921874-2.246094h9.042969c.929688 0 1.832031.328125 2.550781.921875l26.53125 21.96875c1.496094 1.238282 1.886719 3.371094.925782 5.058594l-9.414063 16.53125c-1.140625 2-3.15625 3.320312-5.53125 3.625-.328125.039062-.65625.0625-.980469.0625zm-27.511718-36.515625 27.414062 28.273437 7.410156-13.015624-22.835937-18.910157h-7.601563c-.265624 0-.457031.09375-.546874.171875zm0 0" fill="#3762cc"/><path d="m96.859375 379.34375c-.324219 0-.648437-.023438-.976563-.0625-2.375-.300781-4.390624-1.621094-5.535156-3.625l-9.414062-16.53125c-.957032-1.6875-.570313-3.820312.925781-5.058594l26.535156-21.96875c.714844-.59375 1.617188-.921875 2.546875-.921875h9.042969c2.21875 0 4.324219.796875 5.921875 2.246094l5.425781 4.914063c1.21875 1.101562 1.914063 2.597656 1.96875 4.203124.050781 1.605469-.546875 3.132813-1.683593 4.304688l-29.304688 30.230469c-1.410156 1.453125-3.394531 2.269531-5.453125 2.269531zm-7.308594-21.257812 7.410157 13.015624 27.410156-28.277343-3.839844-3.472657c-.089844-.082031-.285156-.175781-.546875-.175781h-7.597656zm0 0" fill="#3762cc"/><path d="m94.300781 296.25h-19.574219c-1.066406 0-1.929687.863281-1.929687 1.933594v4.828125c0 1.785156.761719 3.519531 2.171875 4.941406 1.6875 1.699219 4.164062 2.800781 6.875 3.109375h5.339844c2.710937-.308594 5.1875-1.410156 6.878906-3.109375 1.40625-1.421875 2.167969-3.15625 2.167969-4.941406v-4.828125c0-1.066406-.867188-1.933594-1.929688-1.933594zm0 0" fill="#f9a7a7"/><path d="m400.511719 332.285156c-9.558594 0-18.574219-2.273437-26.539063-6.304687v12.050781c0 .421875.058594.832031.144532 1.238281.003906 0 .003906 0 .011718-.003906.085938.40625.214844.796875.378906 1.175781.023438.050782.042969.101563.066407.148438.074219.152344.15625.304687.242187.453125.085938.144531.175782.28125.273438.417969.054687.074218.097656.152343.15625.222656l3.769531 4.789062c3.753906 4.773438 8.960937 8.230469 14.851563 9.613282.792968.183593 1.613281.34375 2.460937.46875 9.570313 1.433593 19.144531-2.640626 25.089844-10.316407l5.496093-7.089843c.078126-.378907.125-.765626.125-1.15625v-12.007813c-7.960937 4.03125-16.976562 6.300781-26.527343 6.300781zm0 0" fill="#f9cfcf"/><path d="m459.367188 252.273438c-.121094 0-.246094.015624-.367188.019531v-5.476563c0-32.011718-26.1875-57.960937-58.488281-57.960937s-58.488281 25.949219-58.488281 57.960937v5.476563c-.125-.003907-.246094-.019531-.371094-.019531-9.851563 0-17.84375 7.917968-17.84375 17.683593s7.992187 17.683594 17.84375 17.683594c.648437 0 1.285156-.035156 1.914062-.101563 6.035156 25.640626 29.230469 44.75 56.945313 44.75 27.714843 0 50.90625-19.109374 56.941406-44.75.632813.066407 1.269531.101563 1.914063.101563 9.855468 0 17.847656-7.914063 17.847656-17.683594 0-9.765625-7.988282-17.683593-17.847656-17.683593zm0 0" fill="#f9cfcf"/><path d="m371.445312 279.15625c-3.382812 0-6.136718-2.753906-6.136718-6.136719v-10.234375c0-3.386718 2.753906-6.140625 6.136718-6.140625 3.386719 0 6.140626 2.753907 6.140626 6.140625v10.234375c0 3.382813-2.753907 6.136719-6.140626 6.136719zm0 0" fill="#3762cc"/><path d="m429.300781 279.15625c-3.386719 0-6.140625-2.753906-6.140625-6.136719v-10.234375c0-3.386718 2.753906-6.140625 6.140625-6.140625 3.382813 0 6.140625 2.753907 6.140625 6.140625v10.234375c-.003906 3.382813-2.757812 6.136719-6.140625 6.136719zm0 0" fill="#3762cc"/><path d="m400.511719 336.285156c-28.085938 0-52.308594-18.210937-60.003907-44.675781-11.515624-.59375-20.695312-10.078125-20.695312-21.652344 0-10.730469 7.886719-19.664062 18.210938-21.386719v-1.757812c0-34.164062 28.03125-61.957031 62.488281-61.957031s62.488281 27.792969 62.488281 61.957031v1.757812c10.320312 1.722657 18.210938 10.65625 18.210938 21.386719 0 11.574219-9.183594 21.058594-20.695313 21.652344-7.695313 26.464844-31.917969 44.675781-60.003906 44.675781zm-56.9375-52.75c1.832031 0 3.457031 1.261719 3.890625 3.085938 5.773437 24.53125 27.585937 41.664062 53.046875 41.664062 25.460937 0 47.273437-17.132812 53.046875-41.664062.460937-1.964844 2.300781-3.269532 4.3125-3.0625.492187.050781.992187.082031 1.496094.082031 7.632812 0 13.84375-6.136719 13.84375-13.683594 0-7.523437-6.175782-13.648437-13.78125-13.683593-.164063.011718-.359376.019531-.433594.019531-1.046875 0-2.050782-.410157-2.800782-1.144531-.765624-.753907-1.199218-1.78125-1.199218-2.855469v-5.476563c0-29.753906-24.441406-53.960937-54.488282-53.960937-30.042968 0-54.488281 24.207031-54.488281 53.960937v5.476563c0 1.074219-.429687 2.101562-1.199219 2.855469-.746093.734374-1.753906 1.144531-2.800781 1.144531-.089843 0-.355469-.011719-.449219-.019531-7.550781 0-13.761718 6.136718-13.761718 13.683593s6.207031 13.683594 13.84375 13.683594c.503906 0 1.003906-.03125 1.492187-.085937.144531-.011719.285157-.019532.429688-.019532zm0 0" fill="#3762cc"/><path d="m465.011719 244.71875h-14.984375c-11.675782 0-21.140625-9.464844-21.140625-21.140625v-35.695313c0-7.003906 5.679687-12.683593 12.683593-12.683593h1.660157c15.816406 0 28.636719 12.824219 28.636719 28.640625v34.023437c.003906 3.785157-3.066407 6.855469-6.855469 6.855469zm0 0" fill="#4671c6"/><path d="m465.011719 248.71875h-14.984375c-13.863282 0-25.140625-11.277344-25.140625-25.144531v-35.691407c0-9.199218 7.480469-16.683593 16.683593-16.683593h1.660157c18 0 32.640625 14.640625 32.640625 32.640625v34.019531c0 5.988281-4.871094 10.859375-10.859375 10.859375zm-23.441407-69.519531c-4.789062 0-8.683593 3.898437-8.683593 8.6875v35.691406c0 9.453125 7.6875 17.144531 17.140625 17.144531h14.984375c1.578125 0 2.859375-1.28125 2.859375-2.855468v-34.023438c0-13.585938-11.054688-24.640625-24.640625-24.640625h-1.660157zm0 0" fill="#3762cc"/><path d="m466.289062 400.058594h-131.554687c-2.210937 0-4-1.792969-4-4v-27.082032c0-18.652343 15.175781-33.828124 33.828125-33.828124h5.410156v-9.167969c0-1.386719.71875-2.679688 1.90625-3.40625 1.179688-.726563 2.652344-.789063 3.898438-.164063 7.703125 3.898438 16.023437 5.875 24.734375 5.875 8.707031 0 17.019531-1.976562 24.71875-5.863281 1.238281-.628906 2.714843-.566406 3.902343.160156 1.183594.726563 1.902344 2.019531 1.902344 3.40625v9.160157h5.425782c18.652343 0 33.828124 15.175781 33.828124 33.828124v27.082032c0 2.207031-1.789062 4-4 4zm-127.554687-8h123.554687v-23.082032c0-14.242187-11.585937-25.828124-25.824218-25.828124h-9.480469c-.019531 0-.046875 0-.066406 0-1.195313 0-2.332031-.535157-3.089844-1.460938-.761719-.921875-1.070313-2.140625-.839844-3.3125.023438-.125.046875-.25.046875-.375v-5.863281c-7.152344 2.753906-14.703125 4.148437-22.523437 4.148437-7.828125 0-15.382813-1.394531-22.539063-4.152344v5.902344c.003906.109375.03125.226563.050782.339844.234374 1.171875-.074219 2.390625-.832032 3.3125-.761718.925781-1.890625 1.460938-3.089844 1.460938h-9.542968c-14.242188 0-25.828125 11.585937-25.828125 25.828124v23.082032zm0 0" fill="#3762cc"/><path d="m373.871094 334.320312h-9.039063c-1.214843 0-2.378906.4375-3.234375 1.210938l-5.425781 4.917969c-.832031.753906-.875 1.957031-.097656 2.757812l29.308593 30.230469c1.582032 1.632812 4.515626 1.3125 5.613282-.617188l9.414062-16.527343zm0 0" fill="#e0ebfc"/><path d="m426.738281 334.320312h9.039063c1.214844 0 2.378906.4375 3.234375 1.210938l5.425781 4.917969c.832031.753906.878906 1.957031.097656 2.757812l-29.304687 30.230469c-1.585938 1.632812-4.515625 1.3125-5.617188-.617188l-9.414062-16.527343zm0 0" fill="#e0ebfc"/><path d="m396.785156 244.71875h-44.53125c-13.976562 0-25.304687-11.328125-25.304687-25.304688v-47.226562c0-2.210938 1.789062-4 4-4h76.828125c11.65625 0 21.109375 9.449219 21.109375 21.105469v23.324219c0 17.730468-14.375 32.101562-32.101563 32.101562zm0 0" fill="#4671c6"/><path d="m396.785156 248.71875h-44.53125c-16.160156 0-29.304687-13.148438-29.304687-29.304688v-47.226562c0-4.414062 3.585937-8 8-8h76.828125c13.84375 0 25.109375 11.261719 25.109375 25.105469v23.324219c0 19.90625-16.195313 36.101562-36.101563 36.101562zm-65.835937-76.53125v47.226562c0 11.75 9.554687 21.304688 21.304687 21.304688h44.53125c15.492188 0 28.101563-12.605469 28.101563-28.097656v-23.328125c0-9.429688-7.675781-17.105469-17.109375-17.105469zm0 0" fill="#3762cc"/><path d="m387.953125 378.484375c-2.050781 0-4.039063-.808594-5.449219-2.265625l-29.304687-30.230469c-1.136719-1.171875-1.734375-2.699219-1.683594-4.304687.054687-1.609375.753906-3.101563 1.96875-4.203125l5.425781-4.917969c1.601563-1.445312 3.703125-2.242188 5.917969-2.242188h9.042969c.933594 0 1.832031.324219 2.550781.917969l26.53125 21.96875c1.496094 1.238281 1.886719 3.375.929687 5.0625l-9.414062 16.527344c-1.140625 2-3.15625 3.324219-5.53125 3.625-.328125.042969-.65625.0625-.984375.0625zm-27.511719-36.511719 27.414063 28.269532 7.410156-13.011719-22.835937-18.910157h-7.601563c-.261719 0-.460937.09375-.550781.175782zm0 0" fill="#3762cc"/><path d="m412.652344 378.484375c-.324219 0-.652344-.019531-.980469-.058594-2.375-.300781-4.390625-1.625-5.53125-3.625l-9.414063-16.53125c-.960937-1.6875-.570312-3.820312.925782-5.058593l26.535156-21.972657c.714844-.59375 1.621094-.917969 2.550781-.917969h9.039063c2.222656 0 4.324218.800782 5.921875 2.246094l5.425781 4.917969c1.214844 1.101563 1.914062 2.59375 1.964844 4.207031.054687 1.601563-.542969 3.132813-1.683594 4.300782l-29.304688 30.226562c-1.410156 1.457031-3.390624 2.265625-5.449218 2.265625zm-7.308594-21.253906 7.410156 13.015625 27.410156-28.273438-3.835937-3.476562c-.089844-.082032-.289063-.175782-.550781-.175782h-7.597656zm36.324219-16.804688c-.003907 0-.003907 0-.003907 0zm0 0" fill="#3762cc"/><path d="m277.210938 339.148438h-9.480469c-.019531-.003907-.042969-.003907-.0625-.003907l-.003907.003907h-62.359374c-16.472657 0-29.828126 13.355468-29.828126 29.828124v27.082032h131.558594v-27.082032c0-16.472656-13.351562-29.828124-29.824218-29.828124zm0 0" fill="#b9befc"/><path d="m326.160156 300.871094-16.289062-70.984375h-136.117188l-16.289062 70.984375c-.433594 1.886718-.648438 3.816406-.648438 5.753906 0 13.601562 10.535156 24.632812 23.535156 24.632812h122.921876c13 0 23.539062-11.03125 23.539062-24.632812 0-1.9375-.21875-3.867188-.652344-5.753906zm0 0" fill="#4671c6"/><path d="m303.273438 335.257812h-122.921876c-15.183593 0-27.535156-12.847656-27.535156-28.632812 0-2.234375.25-4.46875.75-6.648438l16.289063-70.984374c.417969-1.816407 2.035156-3.105469 3.898437-3.105469h136.117188c1.867187 0 3.484375 1.289062 3.898437 3.105469l16.292969 70.984374c.5 2.175782.75 4.410157.75 6.644532 0 15.789062-12.351562 28.636718-27.539062 28.636718zm-126.332032-101.371093-15.578125 67.878906c-.363281 1.589844-.546875 3.222656-.546875 4.855469 0 11.375 8.765625 20.632812 19.539063 20.632812h122.921875c10.773437 0 19.539062-9.257812 19.539062-20.632812 0-1.632813-.1875-3.265625-.550781-4.855469l-15.574219-67.878906zm0 0" fill="#3762cc"/><path d="m241.257812 332.285156c-9.558593 0-18.578124-2.273437-26.539062-6.304687v12.050781c0 .421875.058594.832031.144531 1.238281 0 0 .003907 0 .007813-.003906.085937.40625.214844.796875.382812 1.175781.019532.050782.042969.101563.066406.148438.070313.152344.152344.304687.238282.453125.085937.144531.179687.28125.277344.417969.050781.074218.097656.152343.152343.222656l3.769531 4.789062c3.753907 4.773438 8.960938 8.230469 14.855469 9.613282.789063.183593 1.613281.34375 2.460938.46875 9.570312 1.433593 19.140625-2.640626 25.089843-10.316407l5.496094-7.089843c.074219-.378907.125-.765626.125-1.15625v-12.007813c-7.960937 4.03125-16.976562 6.300781-26.527344 6.300781zm0 0" fill="#f9cfcf"/><path d="m300.113281 252.273438c-.121093 0-.246093.015624-.367187.019531v-5.476563c0-32.011718-26.1875-57.960937-58.488282-57.960937-32.304687 0-58.488281 25.949219-58.488281 57.960937v5.476563c-.125-.003907-.246093-.019531-.371093-.019531-9.851563 0-17.84375 7.917968-17.84375 17.683593s7.992187 17.683594 17.84375 17.683594c.648437 0 1.285156-.035156 1.914062-.101563 6.035156 25.640626 29.230469 44.75 56.945312 44.75 27.714844 0 50.90625-19.109374 56.941407-44.75.632812.066407 1.269531.101563 1.914062.101563 9.855469 0 17.847657-7.914063 17.847657-17.683594 0-9.765625-7.988282-17.683593-17.847657-17.683593zm0 0" fill="#f9cfcf"/><path d="m212.191406 279.15625c-3.382812 0-6.136718-2.753906-6.136718-6.136719v-10.234375c0-3.386718 2.753906-6.140625 6.136718-6.140625 3.386719 0 6.140625 2.753907 6.140625 6.140625v10.234375c0 3.382813-2.753906 6.136719-6.140625 6.136719zm0 0" fill="#3762cc"/><path d="m270.046875 279.15625c-3.386719 0-6.140625-2.753906-6.140625-6.136719v-10.234375c0-3.386718 2.753906-6.140625 6.140625-6.140625 3.382813 0 6.140625 2.753907 6.140625 6.140625v10.234375c-.003906 3.382813-2.757812 6.136719-6.140625 6.136719zm0 0" fill="#3762cc"/><path d="m241.257812 336.285156c-28.085937 0-52.308593-18.210937-60.003906-44.675781-11.515625-.59375-20.695312-10.078125-20.695312-21.652344 0-10.730469 7.886718-19.664062 18.210937-21.386719v-1.757812c0-34.164062 28.03125-61.957031 62.488281-61.957031 34.457032 0 62.488282 27.792969 62.488282 61.957031v1.757812c10.320312 1.722657 18.210937 10.65625 18.210937 21.386719 0 11.574219-9.183593 21.058594-20.695312 21.652344-7.695313 26.464844-31.917969 44.675781-60.003907 44.675781zm-56.9375-52.75c1.832032 0 3.457032 1.261719 3.890626 3.085938 5.773437 24.53125 27.585937 41.664062 53.046874 41.664062 25.460938 0 47.273438-17.132812 53.046876-41.664062.460937-1.964844 2.296874-3.269532 4.3125-3.0625.492187.050781.992187.082031 1.496093.082031 7.632813 0 13.84375-6.136719 13.84375-13.683594 0-7.523437-6.175781-13.648437-13.78125-13.683593-.171875.007812-.367187.019531-.433593.019531-1.046876 0-2.050782-.410157-2.800782-1.144531-.765625-.753907-1.199218-1.78125-1.199218-2.855469v-5.476563c0-29.753906-24.441407-53.960937-54.488282-53.960937-30.042968 0-54.488281 24.207031-54.488281 53.960937v5.476563c0 1.074219-.429687 2.101562-1.199219 2.855469-.765625.75-1.78125 1.167968-2.878906 1.144531-.066406 0-.304688-.015625-.375-.019531-7.546875 0-13.757812 6.140624-13.757812 13.683593 0 7.546875 6.210937 13.683594 13.84375 13.683594.503906 0 1.003906-.03125 1.496093-.082031.140625-.015625.285157-.023438.425781-.023438zm0 0" fill="#3762cc"/><path d="m304.628906 247.238281h-14.960937c-11.363281 0-20.574219-9.210937-20.574219-20.574219v-34.125c0-6.816406 5.527344-12.34375 12.34375-12.34375h1.996094c15.390625 0 27.867187 12.480469 27.867187 27.867188v32.5c0 3.6875-2.984375 6.675781-6.671875 6.675781zm0 0" fill="#4671c6"/><path d="m304.628906 251.238281h-14.960937c-13.546875 0-24.570313-11.023437-24.570313-24.574219v-34.125c0-9.011718 7.332032-16.34375 16.34375-16.34375h1.992188c17.574218 0 31.871094 14.296876 31.871094 31.867188v32.5c-.003907 5.886719-4.792969 10.675781-10.675782 10.675781zm-23.191406-67.042969c-4.601562 0-8.34375 3.742188-8.34375 8.34375v34.125c0 9.140626 7.433594 16.574219 16.574219 16.574219h14.960937c1.46875 0 2.671875-1.199219 2.671875-2.671875v-32.5c0-13.164062-10.710937-23.867187-23.871093-23.867187h-1.992188zm0 0" fill="#3762cc"/><path d="m307.035156 400.058594h-131.554687c-2.210938 0-4-1.792969-4-4v-27.082032c0-18.652343 15.175781-33.828124 33.828125-33.828124h5.410156v-9.167969c0-1.386719.71875-2.679688 1.902344-3.40625 1.183594-.726563 2.660156-.789063 3.898437-.164063 7.707031 3.898438 16.027344 5.875 24.738281 5.875 8.707032 0 17.019532-1.976562 24.71875-5.863281 1.238282-.628906 2.714844-.566406 3.902344.160156 1.183594.726563 1.902344 2.019531 1.902344 3.40625v9.160157h5.425781c18.652344 0 33.828125 15.175781 33.828125 33.828124v27.082032c0 2.207031-1.789062 4-4 4zm-127.554687-8h123.554687v-23.082032c0-14.242187-11.585937-25.828124-25.824218-25.828124h-9.480469c-.019531 0-.042969 0-.066407 0-1.195312 0-2.332031-.535157-3.089843-1.460938-.761719-.921875-1.070313-2.140625-.839844-3.3125.023437-.125.046875-.25.046875-.375v-5.863281c-7.152344 2.753906-14.703125 4.148437-22.523438 4.148437-7.828124 0-15.382812-1.394531-22.542968-4.152344v5.902344c.007812.105469.035156.222656.054687.339844.234375 1.171875-.074219 2.390625-.832031 3.3125-.761719.925781-1.890625 1.460938-3.089844 1.460938h-9.542968c-14.242188 0-25.828126 11.585937-25.828126 25.828124v23.082032zm0 0" fill="#3762cc"/><path d="m214.71875 335.175781h-9.042969c-1.214843 0-2.378906.4375-3.234375 1.210938l-5.425781 4.914062c-.832031.757813-.875 1.960938-.097656 2.761719l29.308593 30.226562c1.582032 1.636719 4.515626 1.316407 5.613282-.613281l9.414062-16.53125zm0 0" fill="#e0ebfc"/><path d="m267.582031 335.175781h9.039063c1.21875 0 2.382812.4375 3.234375 1.210938l5.425781 4.914062c.835938.757813.878906 1.960938.101562 2.761719l-29.308593 30.226562c-1.582031 1.636719-4.515625 1.316407-5.613281-.613281l-9.414063-16.53125zm0 0" fill="#e0ebfc"/><path d="m237.859375 247.238281h-44.226563c-13.597656 0-24.621093-11.023437-24.621093-24.621093v-3.753907c0-25.089843 20.339843-45.429687 45.429687-45.429687h34.121094c11.339844 0 20.535156 9.195312 20.535156 20.539062v22.03125c0 17.25-13.988281 31.234375-31.238281 31.234375zm0 0" fill="#4671c6"/><path d="m237.859375 251.238281h-44.226563c-15.785156 0-28.625-12.839843-28.625-28.621093v-3.753907c0-27.253906 22.175782-49.425781 49.429688-49.425781h34.121094c13.53125 0 24.539062 11.003906 24.539062 24.535156v22.03125c-.003906 19.425782-15.808594 35.234375-35.238281 35.234375zm-23.421875-73.804687c-22.84375 0-41.429688 18.585937-41.429688 41.429687v3.75c0 11.371094 9.25 20.621094 20.625 20.621094h44.226563c15.019531 0 27.234375-12.214844 27.234375-27.234375v-22.03125c0-9.117188-7.417969-16.535156-16.535156-16.535156zm0 0" fill="#3762cc"/><path d="m228.699219 379.34375c-2.054688 0-4.039063-.816406-5.449219-2.269531l-29.304688-30.226563c-1.132812-1.167968-1.734374-2.699218-1.683593-4.300781.050781-1.609375.75-3.105469 1.96875-4.207031l5.425781-4.917969c1.59375-1.449219 3.699219-2.246094 5.917969-2.246094h9.042969c.933593 0 1.832031.328125 2.550781.917969l26.53125 21.96875c1.496093 1.238281 1.886719 3.375.929687 5.0625l-9.414062 16.527344c-1.140625 2.003906-3.15625 3.324218-5.535156 3.625-.328126.042968-.65625.066406-.980469.066406zm-27.511719-36.519531 27.414062 28.273437 7.410157-13.011718-22.835938-18.910157h-7.601562c-.261719 0-.457031.09375-.546875.171875zm-1.503906-1.546875h.003906zm0 0" fill="#3762cc"/><path d="m253.398438 379.34375c-.324219 0-.652344-.023438-.980469-.0625-2.378907-.304688-4.390625-1.625-5.53125-3.625l-9.414063-16.527344c-.960937-1.6875-.570312-3.824218.925782-5.0625l26.535156-21.96875c.714844-.59375 1.621094-.917968 2.550781-.917968h9.039063c2.21875 0 4.320312.796874 5.917968 2.246093l5.429688 4.917969c1.214844 1.101562 1.914062 2.59375 1.964844 4.203125.054687 1.601563-.542969 3.132813-1.679688 4.304687l-29.308594 30.226563c-1.410156 1.449219-3.394531 2.265625-5.449218 2.265625zm-7.308594-21.257812 7.410156 13.015624 27.410156-28.273437-3.835937-3.476563c-.089844-.078124-.289063-.171874-.550781-.171874h-7.597657zm0 0" fill="#3762cc"/><path d="m42.445312 440.996094v41.546875c0 .996093 4.441407 1.804687 9.921876 1.804687h25.871093c5.480469 0 9.921875-.808594 9.921875-1.804687v-41.546875zm0 0" fill="#f9cfcf"/><path d="m78.238281 488.351562h-25.871093c-9.757813 0-13.921876-1.738281-13.921876-5.804687v-41.546875c0-2.207031 1.792969-4 4-4h45.714844c2.207032 0 4 1.792969 4 4v41.546875c0 4.066406-4.164062 5.804687-13.921875 5.804687zm-31.792969-8.402343c1.304688.207031 3.316407.398437 5.921876.398437h25.871093c2.605469 0 4.617188-.195312 5.921875-.398437v-34.953125h-37.714844zm0 0" fill="#3762cc"/><path d="m398.113281 440.996094v41.546875c0 .996093 4.445313 1.804687 9.925781 1.804687h25.867188c5.480469 0 9.925781-.808594 9.925781-1.804687v-41.546875zm0 0" fill="#f9cfcf"/><path d="m433.90625 488.351562h-25.871094c-9.757812 0-13.921875-1.738281-13.921875-5.804687v-41.546875c0-2.207031 1.792969-4 4-4h45.714844c2.207031 0 4 1.792969 4 4v41.546875c0 4.066406-4.164063 5.804687-13.921875 5.804687zm-31.792969-8.402343c1.304688.207031 3.316407.398437 5.921875.398437h25.871094c2.605469 0 4.617188-.195312 5.921875-.398437v-34.953125h-37.714844zm0 0" fill="#3762cc"/><path d="m469.75 440.996094h-453.226562c-6.820313 0-12.347657-5.527344-12.347657-12.347656v-20.242188c0-6.820312 5.527344-12.351562 12.347657-12.351562h453.226562c6.820312 0 12.347656 5.53125 12.347656 12.351562v20.242188c0 6.820312-5.527344 12.347656-12.347656 12.347656zm0 0" fill="#f9a7a7"/><path d="m469.75 444.996094h-453.226562c-9.015626 0-16.347657-7.332032-16.347657-16.347656v-20.242188c0-9.015625 7.332031-16.351562 16.347657-16.351562h453.222656c9.015625 0 16.351562 7.335937 16.351562 16.351562v20.242188c0 9.015624-7.335937 16.347656-16.347656 16.347656zm-453.226562-44.9375c-4.601563 0-8.347657 3.746094-8.347657 8.347656v20.242188c0 4.605468 3.746094 8.351562 8.347657 8.351562h453.222656c4.605468 0 8.351562-3.746094 8.351562-8.351562v-20.242188c0-4.601562-3.746094-8.347656-8.351562-8.347656zm0 0" fill="#3762cc"/><path d="m251.601562 296.25h-19.574218c-1.0625 0-1.929688.863281-1.929688 1.933594v4.828125c0 1.785156.761719 3.519531 2.171875 4.941406 1.6875 1.699219 4.164063 2.800781 6.878907 3.109375h5.335937c2.710937-.308594 5.191406-1.410156 6.878906-3.109375 1.40625-1.421875 2.167969-3.15625 2.167969-4.941406v-4.828125c0-1.066406-.863281-1.933594-1.929688-1.933594zm0 0" fill="#f9a7a7"/><path d="m410.289062 296.25h-19.570312c-1.066406 0-1.933594.863281-1.933594 1.933594v4.828125c0 1.785156.765625 3.519531 2.175782 4.941406 1.6875 1.699219 4.160156 2.800781 6.875 3.109375h5.339843c2.710938-.308594 5.1875-1.410156 6.878907-3.109375 1.40625-1.421875 2.167968-3.15625 2.167968-4.941406v-4.828125c0-1.066406-.863281-1.933594-1.933594-1.933594zm0 0" fill="#f9a7a7"/><path d="m87.179688 314.066406h-5.339844c-.113282 0-.226563-.007812-.339844-.019531-3.433594-.394531-6.511719-1.808594-8.664062-3.980469-1.964844-1.976562-3.042969-4.480468-3.042969-7.050781v-4.832031c0-2.71875 2.210937-4.929688 4.933593-4.929688h19.574219c2.714844 0 4.929688 2.210938 4.929688 4.929688v4.832031c0 2.570313-1.078125 5.074219-3.042969 7.050781-2.15625 2.171875-5.234375 3.585938-8.664062 3.980469-.113282.011719-.226563.019531-.34375.019531zm-5.15625-6h4.976562c1.988281-.257812 3.777344-1.0625 4.929688-2.222656.847656-.859375 1.300781-1.835938 1.300781-2.828125v-3.761719h-17.441407v3.761719c0 .992187.453126 1.96875 1.304688 2.828125 1.152344 1.15625 2.941406 1.960938 4.929688 2.222656zm12.277343-8.8125h.019531zm0 0" fill="#3762cc"/><path d="m244.484375 314.066406h-5.339844c-.113281 0-.226562-.007812-.339843-.019531-3.433594-.394531-6.511719-1.808594-8.664063-3.980469-1.964844-1.976562-3.042969-4.480468-3.042969-7.050781v-4.832031c0-2.71875 2.210938-4.929688 4.933594-4.929688h19.570312c2.71875 0 4.933594 2.210938 4.933594 4.929688v4.832031c0 2.570313-1.082031 5.074219-3.042968 7.050781-2.152344 2.171875-5.230469 3.585938-8.664063 3.980469-.113281.011719-.230469.019531-.34375.019531zm-5.15625-6h4.976563c1.988281-.257812 3.777343-1.0625 4.925781-2.222656.851562-.863281 1.300781-1.839844 1.300781-2.828125v-3.761719h-17.4375v3.761719c0 .992187.453125 1.96875 1.304688 2.828125 1.152343 1.15625 2.941406 1.960938 4.929687 2.222656zm12.273437-8.8125h.019532zm0 0" fill="#3762cc"/><path d="m403.175781 314.066406h-5.339843c-.113282 0-.226563-.007812-.339844-.019531-3.433594-.394531-6.511719-1.808594-8.667969-3.980469-1.960937-1.976562-3.042969-4.480468-3.042969-7.050781v-4.832031c0-2.71875 2.214844-4.929688 4.933594-4.929688h19.570312c2.71875 0 4.933594 2.210938 4.933594 4.929688v4.832031c0 2.570313-1.078125 5.074219-3.039062 7.050781-2.15625 2.171875-5.234375 3.585938-8.667969 3.980469-.113281.011719-.230469.019531-.339844.019531zm-5.160156-6h4.976563c1.988281-.257812 3.78125-1.0625 4.929687-2.222656.851563-.859375 1.300781-1.835938 1.300781-2.828125v-3.761719h-17.4375v3.761719c0 .992187.449219 1.96875 1.300782 2.828125 1.152343 1.15625 2.941406 1.960938 4.929687 2.222656zm12.273437-8.8125h.023438zm0 0" fill="#3762cc"/><path d="m329.84375 231.144531v25.582031c3.148438-2.761718 7.277344-4.453124 11.8125-4.453124.121094 0 .246094.015624.367188.019531v-5.476563c0-1.410156.0625-2.804687.160156-4.191406-5.308594-2.308594-9.664063-6.378906-12.339844-11.480469zm0 0" fill="#4671c6"/><path d="m459 246.816406v5.476563c.125-.003907.246094-.019531.371094-.019531 4.640625 0 8.851562 1.769531 12.023437 4.648437v-16.59375c-.992187 2.566406-3.464843 4.390625-6.378906 4.390625h-6.070313c.027344.695312.054688 1.394531.054688 2.097656zm0 0" fill="#4671c6"/><path d="m329.84375 260.726562c-.558594 0-1.121094-.117187-1.648438-.355468-1.433593-.648438-2.351562-2.074219-2.351562-3.644532v-25.582031c0-1.839843 1.257812-3.441406 3.042969-3.882812 1.789062-.441407 3.644531.394531 4.5 2.023437 2.257812 4.304688 5.949219 7.738282 10.390625 9.667969 1.554687.675781 2.519531 2.261719 2.394531 3.957031-.101563 1.402344-.148437 2.679688-.148437 3.902344v5.476562c0 1.074219-.433594 2.105469-1.199219 2.855469-.769531.753907-1.789063 1.152344-2.882813 1.144531-.066406 0-.300781-.015624-.371094-.019531-3.289062 0-6.546874 1.230469-9.089843 3.460938-.742188.65625-1.683594.996093-2.636719.996093zm4-18.53125v7.519532c1.351562-.515625 2.75-.898438 4.179688-1.136719v-1.761719c0-.582031.011718-1.171875.03125-1.777344-1.488282-.824218-2.894532-1.777343-4.210938-2.84375zm0 0" fill="#3762cc"/><path d="m471.394531 260.921875c-.972656 0-1.933593-.359375-2.683593-1.039063-2.570313-2.328124-5.886719-3.605468-9.34375-3.605468l-.289063.015625c-1.042969.023437-2.113281-.390625-2.878906-1.144531-.769531-.75-1.199219-1.78125-1.199219-2.855469v-5.476563c0-.570312-.023438-1.132812-.042969-1.699218l-.011719-.25c-.039062-1.085938.367188-2.140626 1.121094-2.921876.753906-.785156 1.792969-1.226562 2.878906-1.226562h6.066407c1.179687 0 2.21875-.71875 2.652343-1.832031.695313-1.796875 2.574219-2.839844 4.464844-2.488281 1.890625.355468 3.265625 2.007812 3.265625 3.933593v16.589844c0 1.582031-.933593 3.015625-2.378906 3.65625-.519531.230469-1.074219.34375-1.621094.34375zm-7.632812-12.203125c1.242187.253906 2.457031.617188 3.632812 1.078125v-1.339844c-.773437.171875-1.566406.261719-2.382812.261719zm0 0" fill="#3762cc"/><path d="m84.25 356.847656.261719.214844.261719-.214844zm0 0" fill="#a4c9ff"/><path d="m155.871094 261.347656c-1.023438 0-2.027344-.390625-2.792969-1.132812-2.609375-2.542969-6.058594-3.941406-9.710937-3.941406l-.289063.019531c-1.03125.023437-2.113281-.394531-2.878906-1.144531-.769531-.753907-1.199219-1.78125-1.199219-2.855469v-5.476563c0-.433594-.023438-.863281-.042969-1.292968l-.027343-.648438c-.042969-1.085938.359374-2.144531 1.113281-2.929688.753906-.785156 1.792969-1.226562 2.882812-1.226562h6.085938c1.578125 0 2.859375-1.28125 2.859375-2.855469 0-2.210937 1.792968-4 4-4 2.207031 0 4 1.789063 4 4v19.484375c0 1.609375-.960938 3.058594-2.445313 3.6875-.5.210938-1.027343.3125-1.554687.3125zm-8.078125-12.628906c1.402343.285156 2.769531.707031 4.078125 1.257812v-1.640624c-.910156.25-1.871094.382812-2.859375.382812zm0 0" fill="#3762cc"/><path d="m13.84375 260.726562c-.558594 0-1.121094-.117187-1.648438-.355468-1.433593-.648438-2.351562-2.074219-2.351562-3.644532v-25.582031c0-1.839843 1.257812-3.441406 3.042969-3.882812 1.789062-.441407 3.644531.394531 4.5 2.023437 2.234375 4.265625 5.890625 7.683594 10.292969 9.621094 1.453124.640625 2.386718 2.074219 2.386718 3.660156l-.019531 3.195313c-.015625.351562-.027344.699219-.027344 1.050781v5.476562c0 1.074219-.429687 2.105469-1.199219 2.855469-.765624.753907-1.835937 1.152344-2.878906 1.144531-.070312 0-.304687-.015624-.371094-.019531-3.292968 0-6.546874 1.230469-9.09375 3.460938-.738281.65625-1.679687.996093-2.632812.996093zm4-18.535156v7.523438c1.351562-.515625 2.75-.898438 4.179688-1.136719v-1.761719c0-.445312.015624-.882812.03125-1.324218l.015624-.449219c-1.492187-.828125-2.90625-1.78125-4.226562-2.851563zm0 0" fill="#3762cc"/></svg>